<mxfile host="app.diagrams.net" agent="agent" version="20.2.8"><diagram name="Fees & Invoices"><mxGraphModel dx="1280" dy="720" page="1" pageScale="1" pageWidth="1920" pageHeight="1080"><root><mxCell id="0"/><mxCell id="1" parent="0"/><mxCell id="title" value="Fees & Invoices" style="shape=rectangle;whiteSpace=wrap;html=1;fontSize=18;fontStyle=1;" vertex="1"><mxGeometry x="20" y="20" width="1880" height="60" as="geometry"/></mxCell><mxCell id="filters" value="Filters" style="shape=rectangle;whiteSpace=wrap;html=1;rounded=1;" vertex="1"><mxGeometry x="20" y="100" width="1880" height="90" as="geometry"/></mxCell><mxCell id="table" value="Invoices Table" style="shape=rectangle;whiteSpace=wrap;html=1;" vertex="1"><mxGeometry x="20" y="200" width="1880" height="780" as="geometry"/></mxCell></root></mxGraphModel></diagram></mxfile>
